# xmcd
#
# Track frame offsets: 
#        150
#        12810
#        29028
#        42511
#        54764
#        68600
#        81826
#        96182
#        110958
#        122979
#        134630
#        147315
#        163030
#        177050
#        191474
#        207343
#        220528
#        235682
#        250412
#        265463
#
# Disc length: 3692 seconds
#
# Revision: 2
# Processed by: cddbd v1.5.2PL0 Copyright (c) Steve Scherf et al.
# Submitted via: ExactAudioCopy v1.3
#
DISCID=270e6a14
DTITLE=Benny Goodman - Goodman - Don't Be That Way (The King of Swing)
DYEAR=2002
DGENRE=Jazz
TTITLE0=Sugar foot stomp (Hollywood 6.9.37)
TTITLE1=I can´t give you anything but love,baby (Hollywood 6.9.37)
TTITLE2=Minnie the moocher´s wedding day (Hollywood 6.9.37)
TTITLE3=Let that be a lesson to you (NY 22.10.37)
TTITLE4=Can´t teach my old heart new tricks (NY 22.10.37)
TTITLE5=I´ve hitched my wagon to a star (NY 22.10.37)
TTITLE6=Pop-corn man (NY 22.10.37)
TTITLE7=You took the words right out of my heart (Hollywood 12.11.37)
TTITLE8=Mama the moon is here again (Hollywood 12.11.37)
TTITLE9=Loch Lomond (Hollywood 12.11.37)
TTITLE10=Camel hop (NY 12.11.37)
TTITLE11=True confession (NY 12.11.37)
TTITLE12=Life goes to a party (NY 12.11.37)
TTITLE13=If dream come true (NY 3.12.37)
TTITLE14=I´m like a fish out of water (NY 3.12.37)
TTITLE15=Sweet stranger (NY 3.12.37)
TTITLE16=Don´t be that way (NY 16.2.38)
TTITLE17=One o´clock jump (NY 16.2.38)
TTITLE18=Please be kind (NY 9.3.38)
TTITLE19=Ti-pi-tin (NY 9.3.38)
EXTD=
EXTT0=
EXTT1=
EXTT2=
EXTT3=
EXTT4=
EXTT5=
EXTT6=
EXTT7=
EXTT8=
EXTT9=
EXTT10=
EXTT11=
EXTT12=
EXTT13=
EXTT14=
EXTT15=
EXTT16=
EXTT17=
EXTT18=
EXTT19=
PLAYORDER=
